<?xml version="1.0" encoding="UTF-8" standalone="no"?>
<!DOCTYPE svg PUBLIC "-//W3C//DTD SVG 1.1//EN"
 "http://www.w3.org/Graphics/SVG/1.1/DTD/svg11.dtd">
<!-- Generated by graphviz version 2.44.0 ()
 -->
<!-- Title: v8::Local::New Pages: 1 -->
<svg width="282pt" height="300pt"
 viewBox="0.00 0.00 282.00 300.00" xmlns="http://www.w3.org/2000/svg" xmlns:xlink="http://www.w3.org/1999/xlink">
<g id="graph0" class="graph" transform="scale(1 1) rotate(0) translate(4 296)">
<title>v8::Local::New</title>
<polygon fill="white" stroke="transparent" points="-4,4 -4,-296 278,-296 278,4 -4,4"/>
<!-- Node1 -->
<g id="node1" class="node">
<title>Node1</title>
<g id="a_node1"><a xlink:title=" ">
<polygon fill="#bfbfbf" stroke="black" points="194,-136.5 194,-155.5 274,-155.5 274,-136.5 194,-136.5"/>
<text text-anchor="middle" x="234" y="-143.5" font-family="Helvetica,sans-Serif" font-size="10.00">v8::Local::New</text>
</a>
</g>
</g>
<!-- Node2 -->
<g id="node2" class="node">
<title>Node2</title>
<g id="a_node2"><a xlink:href="classv8_1_1internal_1_1JSMemberBase.html#abd85f6ae9e83f6ac538585cee8774b13" target="_top" xlink:title=" ">
<polygon fill="white" stroke="black" points="0,-272.5 0,-291.5 158,-291.5 158,-272.5 0,-272.5"/>
<text text-anchor="middle" x="79" y="-279.5" font-family="Helvetica,sans-Serif" font-size="10.00">v8::internal::JSMemberBase::Get</text>
</a>
</g>
</g>
<!-- Node1&#45;&gt;Node2 -->
<g id="edge1" class="edge">
<title>Node1&#45;&gt;Node2</title>
<path fill="none" stroke="midnightblue" d="M226.01,-165.22C215.44,-191.47 192.87,-238.12 158,-263 152.55,-266.89 146.41,-269.98 140.02,-272.45"/>
<polygon fill="midnightblue" stroke="midnightblue" points="229.37,-166.23 229.69,-155.64 222.84,-163.72 229.37,-166.23"/>
</g>
<!-- Node3 -->
<g id="node3" class="node">
<title>Node3</title>
<g id="a_node3"><a xlink:href="classv8_1_1PersistentValueMapBase.html#a16b8f906ea42036c2f37d44813bf2a72" target="_top" xlink:title=" ">
<polygon fill="white" stroke="black" points="3.5,-212.5 3.5,-253.5 154.5,-253.5 154.5,-212.5 3.5,-212.5"/>
<text text-anchor="start" x="11.5" y="-241.5" font-family="Helvetica,sans-Serif" font-size="10.00">v8::PersistentValueMapBase</text>
<text text-anchor="start" x="11.5" y="-230.5" font-family="Helvetica,sans-Serif" font-size="10.00">&lt; K, V, DefaultGlobalMapTraits</text>
<text text-anchor="middle" x="79" y="-219.5" font-family="Helvetica,sans-Serif" font-size="10.00">&lt; K, V &gt; &gt;::Get</text>
</a>
</g>
</g>
<!-- Node1&#45;&gt;Node3 -->
<g id="edge2" class="edge">
<title>Node1&#45;&gt;Node3</title>
<path fill="none" stroke="midnightblue" d="M214.75,-162.23C200.16,-174.6 178.78,-191.42 158,-203 151.92,-206.39 145.37,-209.56 138.75,-212.48"/>
<polygon fill="midnightblue" stroke="midnightblue" points="217.22,-164.72 222.5,-155.53 212.64,-159.42 217.22,-164.72"/>
</g>
<!-- Node4 -->
<g id="node4" class="node">
<title>Node4</title>
<g id="a_node4"><a xlink:href="classv8_1_1PersistentBase.html#afc2feb7652b6d60b86a51eb2279be463" target="_top" xlink:title=" ">
<polygon fill="white" stroke="black" points="19.5,-174.5 19.5,-193.5 138.5,-193.5 138.5,-174.5 19.5,-174.5"/>
<text text-anchor="middle" x="79" y="-181.5" font-family="Helvetica,sans-Serif" font-size="10.00">v8::PersistentBase::Get</text>
</a>
</g>
</g>
<!-- Node1&#45;&gt;Node4 -->
<g id="edge3" class="edge">
<title>Node1&#45;&gt;Node4</title>
<path fill="none" stroke="midnightblue" d="M185.82,-158.02C176.6,-160.35 167,-162.76 158,-165 145.56,-168.09 131.98,-171.42 119.7,-174.4"/>
<polygon fill="midnightblue" stroke="midnightblue" points="186.8,-161.39 195.63,-155.54 185.08,-154.6 186.8,-161.39"/>
</g>
<!-- Node5 -->
<g id="node5" class="node">
<title>Node5</title>
<g id="a_node5"><a xlink:href="classv8_1_1PersistentValueVector.html#a0788f334c7f61355863244379042ce76" target="_top" xlink:title=" ">
<polygon fill="white" stroke="black" points="4.5,-136.5 4.5,-155.5 153.5,-155.5 153.5,-136.5 4.5,-136.5"/>
<text text-anchor="middle" x="79" y="-143.5" font-family="Helvetica,sans-Serif" font-size="10.00">v8::PersistentValueVector::Get</text>
</a>
</g>
</g>
<!-- Node1&#45;&gt;Node5 -->
<g id="edge4" class="edge">
<title>Node1&#45;&gt;Node5</title>
<path fill="none" stroke="midnightblue" d="M183.86,-146C174.25,-146 163.97,-146 153.76,-146"/>
<polygon fill="midnightblue" stroke="midnightblue" points="184,-149.5 194,-146 184,-142.5 184,-149.5"/>
</g>
<!-- Node6 -->
<g id="node6" class="node">
<title>Node6</title>
<g id="a_node6"><a xlink:href="classv8_1_1TracedReferenceBase.html#ae9b5bea38a8516c83dfd85c71cedd1b3" target="_top" xlink:title=" ">
<polygon fill="white" stroke="black" points="4.5,-98.5 4.5,-117.5 153.5,-117.5 153.5,-98.5 4.5,-98.5"/>
<text text-anchor="middle" x="79" y="-105.5" font-family="Helvetica,sans-Serif" font-size="10.00">v8::TracedReferenceBase::Get</text>
</a>
</g>
</g>
<!-- Node1&#45;&gt;Node6 -->
<g id="edge5" class="edge">
<title>Node1&#45;&gt;Node6</title>
<path fill="none" stroke="midnightblue" d="M185.82,-133.98C176.6,-131.65 167,-129.24 158,-127 145.56,-123.91 131.98,-120.58 119.7,-117.6"/>
<polygon fill="midnightblue" stroke="midnightblue" points="185.08,-137.4 195.63,-136.46 186.8,-130.61 185.08,-137.4"/>
</g>
<!-- Node7 -->
<g id="node7" class="node">
<title>Node7</title>
<g id="a_node7"><a xlink:href="classv8_1_1ReturnValue.html#a9167dbbc04d72bbd85a8a7f199f211c4" target="_top" xlink:title=" ">
<polygon fill="white" stroke="black" points="26.5,-60.5 26.5,-79.5 131.5,-79.5 131.5,-60.5 26.5,-60.5"/>
<text text-anchor="middle" x="79" y="-67.5" font-family="Helvetica,sans-Serif" font-size="10.00">v8::ReturnValue::Get</text>
</a>
</g>
</g>
<!-- Node1&#45;&gt;Node7 -->
<g id="edge6" class="edge">
<title>Node1&#45;&gt;Node7</title>
<path fill="none" stroke="midnightblue" d="M215.63,-129.45C201.25,-116.63 179.72,-99.34 158,-89 149.82,-85.11 140.77,-81.96 131.81,-79.44"/>
<polygon fill="midnightblue" stroke="midnightblue" points="213.48,-132.23 223.22,-136.41 218.21,-127.07 213.48,-132.23"/>
</g>
<!-- Node8 -->
<g id="node8" class="node">
<title>Node8</title>
<g id="a_node8"><a xlink:href="classv8_1_1PersistentValueMapBase_1_1PersistentValueReference.html#ac59d20538e1986a423605b013f33e040" target="_top" xlink:title=" ">
<polygon fill="white" stroke="black" points="8,-0.5 8,-41.5 150,-41.5 150,-0.5 8,-0.5"/>
<text text-anchor="start" x="16" y="-29.5" font-family="Helvetica,sans-Serif" font-size="10.00">v8::PersistentValueMapBase</text>
<text text-anchor="start" x="16" y="-18.5" font-family="Helvetica,sans-Serif" font-size="10.00">::PersistentValueReference</text>
<text text-anchor="middle" x="79" y="-7.5" font-family="Helvetica,sans-Serif" font-size="10.00">::NewLocal</text>
</a>
</g>
</g>
<!-- Node1&#45;&gt;Node8 -->
<g id="edge7" class="edge">
<title>Node1&#45;&gt;Node8</title>
<path fill="none" stroke="midnightblue" d="M222.64,-127.55C209.91,-106.4 186.46,-71.97 158,-51 153.33,-47.56 148.21,-44.46 142.9,-41.68"/>
<polygon fill="midnightblue" stroke="midnightblue" points="219.64,-129.37 227.71,-136.24 225.69,-125.84 219.64,-129.37"/>
</g>
</g>
</svg>
