<?xml version="1.0" encoding="UTF-8" standalone="no"?>
<!DOCTYPE svg PUBLIC "-//W3C//DTD SVG 1.1//EN"
 "http://www.w3.org/Graphics/SVG/1.1/DTD/svg11.dtd">
<!-- Generated by graphviz version 2.44.0 ()
 -->
<!-- Title: cppgc::internal::TraceTraitBase::Trace Pages: 1 -->
<svg width="284pt" height="88pt"
 viewBox="0.00 0.00 284.00 88.00" xmlns="http://www.w3.org/2000/svg" xmlns:xlink="http://www.w3.org/1999/xlink">
<g id="graph0" class="graph" transform="scale(1 1) rotate(0) translate(4 84)">
<title>cppgc::internal::TraceTraitBase::Trace</title>
<polygon fill="white" stroke="transparent" points="-4,4 -4,-84 280,-84 280,4 -4,4"/>
<!-- Node1 -->
<g id="node1" class="node">
<title>Node1</title>
<g id="a_node1"><a xlink:title=" ">
<polygon fill="#bfbfbf" stroke="black" points="148,-30 148,-60 276,-60 276,-30 148,-30"/>
<text text-anchor="start" x="156" y="-48" font-family="Helvetica,sans-Serif" font-size="10.00">cppgc::internal::TraceTrait</text>
<text text-anchor="middle" x="212" y="-37" font-family="Helvetica,sans-Serif" font-size="10.00">Base::Trace</text>
</a>
</g>
</g>
<!-- Node2 -->
<g id="node2" class="node">
<title>Node2</title>
<g id="a_node2"><a xlink:href="classcppgc_1_1Visitor.html#a83e810379a6baf5fa4aef855f1536efc" target="_top" xlink:title=" ">
<polygon fill="white" stroke="black" points="4,-60.5 4,-79.5 108,-79.5 108,-60.5 4,-60.5"/>
<text text-anchor="middle" x="56" y="-67.5" font-family="Helvetica,sans-Serif" font-size="10.00">cppgc::Visitor::Trace</text>
</a>
</g>
</g>
<!-- Node1&#45;&gt;Node2 -->
<g id="edge1" class="edge">
<title>Node1&#45;&gt;Node2</title>
<path fill="none" stroke="midnightblue" d="M138,-56.85C128.02,-58.47 117.95,-60.11 108.47,-61.65"/>
<polygon fill="midnightblue" stroke="midnightblue" points="138.61,-60.3 147.92,-55.24 137.49,-53.39 138.61,-60.3"/>
</g>
<!-- Node3 -->
<g id="node3" class="node">
<title>Node3</title>
<g id="a_node3"><a xlink:href="structcppgc_1_1TraceTrait_3_01v8_1_1JSMember_3_01T_01_4_01_4.html#a4388f40101b24ff90d251abdbabc54a2" target="_top" xlink:title=" ">
<polygon fill="white" stroke="black" points="0,-0.5 0,-41.5 112,-41.5 112,-0.5 0,-0.5"/>
<text text-anchor="start" x="8" y="-29.5" font-family="Helvetica,sans-Serif" font-size="10.00">cppgc::TraceTrait&lt;</text>
<text text-anchor="start" x="8" y="-18.5" font-family="Helvetica,sans-Serif" font-size="10.00"> v8::JSMember&lt; T &gt; &gt;</text>
<text text-anchor="middle" x="56" y="-7.5" font-family="Helvetica,sans-Serif" font-size="10.00">::Trace</text>
</a>
</g>
</g>
<!-- Node1&#45;&gt;Node3 -->
<g id="edge2" class="edge">
<title>Node1&#45;&gt;Node3</title>
<path fill="none" stroke="midnightblue" d="M137.88,-33.61C129.29,-32.27 120.63,-30.92 112.34,-29.62"/>
<polygon fill="midnightblue" stroke="midnightblue" points="137.5,-37.09 147.92,-35.17 138.58,-30.17 137.5,-37.09"/>
</g>
</g>
</svg>
